<svg xmlns="http://www.w3.org/2000/svg" width="400" height="400" viewBox="0 0 0 0 400 400"><g fill-rule="evenodd"><path d="M357 124l-3 6-42 43-42 42v105c2 8 8 13 15 15h58c7-3 13-8 14-16V124" fill="#bc22f3"/><path d="M41 219l1 99c1 8 7 15 15 17h57c7-1 12-7 14-14l1-2V215l-42-42c-45-45-43-43-44-47a23 23 0 0 1-1-3c-1-1-1 1-1 96m271-46l-42 42 42-42" fill="#e32a77"/><path d="M93 65c-2 0-5 1-7 3l-41 39c-3 4-4 11-3 15v2l3 6 104 104c-5-6-5-14 0-21l26-26 25-26-45-44-47-47c-4-4-10-6-15-5" fill="#34e3bb"/><path d="M301 65l-8 3-144 145c-5 7-4 15 0 21 1 3 37 38 39 40 8 5 17 4 24-1l143-144c4-6 4-14-1-21l-41-40c-3-3-8-4-12-3" fill="#fbdb04"/><path d="M145 223l1 1a13 13 0 0 0 0-1h-1" fill="#6c9c9c"/></g></svg>